<?xml version="1.0" encoding="UTF-8"?>
<svg id="Layer_1" xmlns="http://www.w3.org/2000/svg" version="1.1" viewBox="0 0 537 205">
  <!-- Generator: Adobe Illustrator 30.0.0, SVG Export Plug-In . SVG Version: 2.1.1 Build 123)  -->
  <defs>
    <style>
      .st0 {
        fill: #414142;
      }

      .st1 {
        fill: #088c45;
      }

      .st2 {
        fill: #f37a21;
      }

      .st3 {
        fill: #6e6f71;
      }
    </style>
  </defs>
  <g>
    <path class="st0" d="M31.04,165.77h3.65l-3.39,14.13c-.5,2.1-.41,3.69.28,4.74.69,1.05,1.99,1.57,3.86,1.57s3.41-.52,4.61-1.57c1.19-1.05,2.05-2.63,2.56-4.74l3.39-14.13h3.69l-3.47,14.48c-.75,3.15-2.1,5.5-4.03,7.07-1.91,1.57-4.44,2.35-7.56,2.35s-5.27-.78-6.45-2.35c-1.16-1.55-1.37-3.9-.61-7.07l3.46-14.48Z"/>
    <path class="st0" d="M49.2,189.07l5.79-24.23,11.03,14.24c.28.39.59.83.88,1.29.3.47.6.97.9,1.55l3.88-16.14h3.42l-5.78,24.2-11.27-14.51c-.29-.39-.58-.8-.84-1.25-.27-.43-.49-.88-.71-1.37l-3.89,16.22h-3.39Z"/>
    <path class="st0" d="M74.79,189.07l5.57-23.29h3.69l-5.57,23.29h-3.69Z"/>
    <path class="st0" d="M83.78,189.07l5.57-23.29h12.69l-.76,3.2h-8.99l-1.4,5.8h8.99l-.8,3.33h-8.97l-2.63,10.97h-3.69Z"/>
    <path class="st0" d="M100.51,189.07l5.58-23.29h3.69l-5.58,23.29h-3.69Z"/>
    <path class="st0" d="M109.5,189.07l5.58-23.29h12.67l-.76,3.2h-8.97l-1.41,5.84h8.99l-.8,3.33h-8.99l-1.8,7.53h8.99l-.82,3.41h-12.67Z"/>
    <path class="st0" d="M126.42,189.07l5.57-23.29h4.97c3.25,0,5.49.14,6.71.48,1.24.35,2.27.9,3.06,1.68,1.08,1.02,1.76,2.35,2.06,3.97.29,1.61.19,3.45-.31,5.52-.5,2.05-1.27,3.89-2.34,5.49-1.05,1.6-2.37,2.91-3.92,3.95-1.18.8-2.44,1.35-3.8,1.69-1.35.31-3.35.5-6.04.5h-5.96ZM130.92,185.63h3.1c1.7,0,3.01-.11,3.92-.35.9-.24,1.74-.63,2.51-1.18,1.04-.75,1.9-1.69,2.61-2.8.69-1.13,1.21-2.43,1.58-3.92.35-1.48.44-2.78.28-3.89-.16-1.13-.58-2.06-1.25-2.81-.5-.55-1.19-.95-2.02-1.18-.85-.24-2.22-.36-4.12-.36h-2.65l-3.95,16.48Z"/>
    <path class="st0" d="M165.48,178.6l-2.51,10.46h-3.46l5.58-23.29h5.59c1.66,0,2.86.08,3.57.27.74.18,1.37.5,1.84.91.58.55.97,1.27,1.14,2.2.19.91.14,1.93-.11,3.03-.27,1.1-.72,2.12-1.33,3.06-.64.93-1.37,1.66-2.21,2.2-.67.42-1.43.72-2.26.91-.82.18-2.07.27-3.7.27h-2.14ZM166.45,175.5h.94c2.06,0,3.47-.22,4.27-.69.78-.45,1.32-1.25,1.6-2.41.29-1.24.14-2.14-.47-2.62-.61-.52-1.88-.77-3.83-.77h-.94l-1.57,6.5Z"/>
    <path class="st0" d="M189.69,189.07l-1.15-6.01h-9l-4.05,6.01h-3.88l16.76-24.23,5.2,24.23h-3.89ZM181.67,179.9h6.32l-1.03-5.31c-.07-.33-.11-.73-.14-1.16-.05-.46-.08-.93-.09-1.49-.24.52-.48,1.01-.74,1.45-.24.42-.48.83-.72,1.21l-3.59,5.31Z"/>
    <path class="st0" d="M198.88,189.07l2.54-10.67-4.61-12.63h3.88l2.87,7.89c.05.2.14.47.23.8.1.33.18.69.26,1.07.25-.37.48-.73.72-1.05.24-.33.48-.63.71-.9l6.76-7.81h3.72l-10.86,12.63-2.56,10.67h-3.65Z"/>
    <path class="st0" d="M234.09,177.55c0-.17.05-.67.16-1.49.08-.67.14-1.26.19-1.69-.24.54-.49,1.07-.78,1.58-.3.52-.65,1.08-1.04,1.63l-8.91,12.4-2.9-12.65c-.12-.52-.22-1.04-.28-1.52-.07-.49-.11-.97-.12-1.44-.14.48-.3,1.01-.49,1.54-.2.54-.42,1.1-.71,1.68l-5.18,11.48h-3.4l11.18-24.3,3.17,14.7c.06.24.12.63.2,1.18.08.54.17,1.21.28,2.01.38-.67.94-1.54,1.65-2.56.19-.28.33-.48.42-.64l10.07-14.69-.33,24.3h-3.43l.25-11.52Z"/>
    <path class="st0" d="M240.22,189.07l5.57-23.29h12.69l-.78,3.2h-8.97l-1.41,5.84h8.99l-.8,3.33h-8.99l-1.79,7.53h8.99l-.81,3.41h-12.68Z"/>
    <path class="st0" d="M257.12,189.07l5.8-24.23,11.03,14.24c.3.39.58.83.88,1.29.29.47.59.97.91,1.55l3.86-16.14h3.42l-5.8,24.2-11.25-14.51c-.3-.39-.58-.8-.85-1.25-.27-.43-.5-.88-.71-1.37l-3.89,16.22h-3.41Z"/>
    <path class="st0" d="M294.78,168.97l-4.8,20.1h-3.69l4.8-20.1h-6.04l.78-3.2h15.71l-.75,3.2h-6.02Z"/>
    <path class="st0" d="M298.62,184.39l3.27-1.41c.03,1.05.35,1.85.97,2.4.61.53,1.49.82,2.65.82,1.1,0,2.04-.31,2.84-.94.8-.63,1.32-1.48,1.57-2.51.33-1.37-.48-2.61-2.44-3.67-.27-.16-.47-.27-.63-.35-2.2-1.25-3.59-2.39-4.19-3.41-.58-1.02-.71-2.24-.36-3.7.45-1.9,1.46-3.45,2.99-4.61,1.54-1.19,3.33-1.78,5.37-1.78,1.68,0,2.99.35,3.97,1,.97.68,1.52,1.62,1.66,2.86l-3.26,1.52c-.28-.72-.64-1.25-1.11-1.6-.46-.33-1.04-.5-1.74-.5-.99,0-1.85.27-2.56.8-.71.52-1.18,1.24-1.38,2.12-.35,1.39.63,2.71,2.9,3.92.17.09.31.17.41.22,1.99,1.05,3.28,2.1,3.88,3.12.61,1.01.73,2.27.35,3.78-.52,2.22-1.61,3.95-3.28,5.27-1.66,1.29-3.65,1.94-5.96,1.94-1.93,0-3.42-.47-4.42-1.36-1.02-.91-1.52-2.22-1.49-3.92Z"/>
    <path class="st0" d="M325.9,189.07l5.57-23.29h3.69l-5.57,23.29h-3.69Z"/>
    <path class="st0" d="M334.88,189.07l5.8-24.23,11.01,14.24c.3.39.58.83.88,1.29.29.47.59.97.91,1.55l3.86-16.14h3.42l-5.8,24.2-11.24-14.51c-.3-.39-.58-.8-.85-1.25-.25-.43-.5-.88-.71-1.37l-3.89,16.22h-3.39Z"/>
    <path class="st0" d="M372.55,168.97l-4.82,20.1h-3.69l4.8-20.1h-6.02l.76-3.2h15.74l-.77,3.2h-6.01Z"/>
    <path class="st0" d="M376.56,189.07l5.59-23.29h12.65l-.76,3.2h-8.97l-1.4,5.84h8.97l-.78,3.33h-8.99l-1.8,7.53h8.97l-.8,3.41h-12.67Z"/>
    <path class="st0" d="M399.43,178.63l-2.51,10.43h-3.45l5.57-23.29h5.16c1.5,0,2.65.08,3.44.28.78.2,1.41.55,1.9,1.02.56.56.93,1.27,1.1,2.16.17.9.12,1.87-.12,2.94-.44,1.87-1.24,3.33-2.37,4.38-1.12,1.05-2.57,1.69-4.34,1.91l5.28,10.61h-4.18l-5.05-10.43h-.41ZM400.36,175.69h.67c1.96,0,3.31-.24,4.06-.71.74-.46,1.27-1.29,1.55-2.48.31-1.28.18-2.18-.39-2.71-.56-.52-1.77-.78-3.62-.78h-.67l-1.6,6.69Z"/>
    <path class="st0" d="M411.26,189.07l5.58-23.29h12.68l-.77,3.2h-8.99l-1.4,5.8h8.99l-.8,3.33h-8.99l-2.62,10.97h-3.69Z"/>
    <path class="st0" d="M441.8,189.07l-1.13-6.01h-9.01l-4.06,6.01h-3.89l16.8-24.23,5.19,24.23h-3.9ZM433.8,179.9h6.32l-1.05-5.31c-.06-.33-.11-.73-.14-1.16-.05-.46-.07-.93-.1-1.49-.25.52-.48,1.01-.74,1.45-.24.42-.47.83-.71,1.21l-3.59,5.31Z"/>
    <path class="st0" d="M469.73,171.42c-.83-.91-1.77-1.59-2.82-2.04-1.07-.47-2.23-.71-3.51-.71-2.48,0-4.71.83-6.64,2.46-1.96,1.63-3.23,3.75-3.86,6.35-.61,2.51-.35,4.57.78,6.21,1.11,1.63,2.84,2.44,5.14,2.44,1.33,0,2.69-.24,4-.72,1.33-.48,2.7-1.22,4.03-2.23l-1.02,4.3c-1.16.74-2.37,1.29-3.64,1.63-1.25.37-2.55.55-3.92.55-1.74,0-3.28-.29-4.61-.88-1.32-.58-2.42-1.44-3.27-2.59-.83-1.1-1.38-2.4-1.59-3.93-.25-1.49-.18-3.11.25-4.82.41-1.73,1.09-3.33,2.04-4.83.95-1.49,2.13-2.81,3.53-3.95,1.41-1.14,2.91-2.01,4.5-2.61,1.6-.58,3.25-.86,4.94-.86,1.33,0,2.57.19,3.69.6,1.11.39,2.13,1,3.09,1.8l-1.12,3.81Z"/>
    <path class="st0" d="M470.08,189.07l5.58-23.29h12.66l-.76,3.2h-8.97l-1.41,5.84h8.99l-.8,3.33h-8.97l-1.8,7.53h8.99l-.82,3.41h-12.67Z"/>
  </g>
  <g>
    <g>
      <path class="st3" d="M402.76,145.46h-25.38l35.29-127.45h25.38l-35.29,127.45Z"/>
      <path class="st3" d="M389.58,22.03c-1.76-2.41-4.47-3.64-8.16-3.64h-139.52l-6.91,24.97h25.38v-.03h101.55l-7.37,26.69h-101.55v-.07h-25.38l-21.05,76.04h25.38l14.15-51.04h114.15c3.54,0,6.92-1.21,10.07-3.64,3.15-2.43,5.2-5.44,6.21-9.02l14.13-51.04c1.04-3.71.68-6.79-1.07-9.22Z"/>
      <path class="st3" d="M191.77,137.51c-1.41,5.05-5.99,8.54-11.25,8.54H49.61c-3.56,0-6.22-1.21-7.95-3.64-1.74-2.45-2.12-5.44-1.12-9.02l31.94-115.01h25.39l-28.53,102.71h101.6l28.52-102.71h25.41l-33.1,119.13Z"/>
    </g>
    <g>
      <polygon class="st1" points="481.88 18.25 514 82.14 446.46 146.01 481.88 18.25"/>
      <polygon class="st2" points="459.35 18.25 491.46 82.14 423.89 146.01 459.35 18.25"/>
    </g>
  </g>
</svg>